<?xml version="1.0" encoding="iso-8859-1"?>
<!-- Uploaded to: SVG Repo, www.svgrepo.com, Generator: SVG Repo Mixer Tools -->
<svg version="1.1" id="Layer_1" xmlns="http://www.w3.org/2000/svg" xmlns:xlink="http://www.w3.org/1999/xlink" 
	 viewBox="0 0 512 512" xml:space="preserve">
<path style="fill:#57545C;" d="M98.326,78.282L34.908,88.465c-17.693,2.841-29.732,19.486-26.89,37.179l11.278,70.227
	l481.116-77.262l-11.279-70.226c-2.841-17.693-19.486-29.732-37.179-26.89L168.646,66.989L98.326,78.282z"/>
<path style="fill:#FFCD00;" d="M9.469,134.678l9.827,61.193l481.116-77.262l-9.803-61.047
	C426.885,67.698,71.63,124.227,9.469,134.678z"/>
<rect x="17.115" y="195.875" style="fill:#3E3B43;" width="487.279" height="295.054"/>
<polygon style="fill:#2F2D30;" points="455.512,195.872 455.512,442.043 17.115,442.043 17.115,490.925 504.394,490.925 
	504.394,195.872 "/>
<rect x="17.115" y="195.875" style="fill:#FFCD00;" width="487.279" height="51.79"/>
<g>
	<polygon style="fill:#CCA400;" points="152.683,247.657 203.674,195.872 106.842,195.872 55.851,247.657 	"/>
	<polygon style="fill:#CCA400;" points="324.223,247.657 375.214,195.872 278.382,195.872 227.391,247.657 	"/>
	<polygon style="fill:#CCA400;" points="411.39,247.657 462.381,195.872 504.394,195.872 504.394,247.657 	"/>
	<polygon style="fill:#CCA400;" points="57.542,189.73 99.588,120.019 9.469,134.678 19.296,195.872 	"/>
	<polygon style="fill:#CCA400;" points="238.962,160.294 280.756,91.002 195.187,104.68 153.148,174.376 	"/>
	<polygon style="fill:#CCA400;" points="416.42,132.098 458.274,62.707 366.963,77.251 325.029,146.774 	"/>
</g>
<path d="M504.395,188.267h-42.064c-0.004,0-0.009,0-0.013,0h-84.612c-0.004,0-0.009,0-0.013,0h-87.361c-0.004,0-0.009,0-0.013,0
	h-86.694c-0.004,0-0.009,0-0.013,0h-89.003l387.009-62.149c1.991-0.319,3.774-1.417,4.956-3.052s1.667-3.671,1.346-5.663
	l-11.278-70.227c-1.696-10.562-7.403-19.832-16.072-26.101c-8.667-6.27-19.258-8.785-29.821-7.092L167.44,59.481
	c-4.147,0.666-6.967,4.568-6.302,8.713c0.665,4.146,4.551,6.966,8.714,6.302l283.308-45.496c6.555-1.051,13.12,0.511,18.497,4.398
	c5.376,3.888,8.916,9.638,9.968,16.189l0.51,3.179c-20.781,3.303-128.545,20.436-235.056,37.45
	c-69.277,11.067-124.471,19.918-164.05,26.307c-23.505,3.795-41.695,6.753-54.063,8.79c-5.278,0.87-9.625,1.594-12.953,2.158
	l-0.487-3.034c-2.172-13.523,7.065-26.293,20.588-28.465l63.418-10.185c4.147-0.666,6.968-4.568,6.302-8.714
	c-0.665-4.146-4.55-6.966-8.714-6.302L33.702,80.958C11.899,84.46-2.991,105.046,0.51,126.85l1.715,10.675
	c0.001,0.004,0.001,0.008,0.002,0.012c0,0.002,0.001,0.004,0.001,0.007l8.666,53.965c-0.868,1.236-1.382,2.739-1.382,4.363v295.054
	c0,4.2,3.404,7.604,7.604,7.604h487.28c4.201,0,7.604-3.405,7.604-7.604V195.872C511.999,191.671,508.595,188.267,504.395,188.267z
	 M496.791,240.053H429.55l36.016-36.577h31.225V240.053z M344.925,240.053l36.016-36.577h63.281l-36.016,36.577H344.925z
	 M257.55,240.053l36.016-36.577h66.031l-36.016,36.577H257.55z M170.842,240.053l36.016-36.577h65.365l-36.016,36.577H170.842z
	 M74.01,240.053l36.016-36.577h75.489l-36.016,36.577H74.01z M24.719,240.053v-36.577h63.964l-36.016,36.577H24.719z
	 M179.192,116.475l-30.732,50.952l-75.943,12.195l30.734-50.955C125.916,125.018,151.668,120.884,179.192,116.475z M350.972,89.04
	l-30.631,50.785l-66.605,10.696l30.682-50.867C306.674,96.102,329.037,92.536,350.972,89.04z M442.28,74.503l-30.548,50.645
	l-71.726,11.518l30.615-50.757C395.57,81.936,419.732,78.09,442.28,74.503z M491.696,112.307l-60.3,9.684l30.527-50.612
	c7.797-1.24,15.353-2.44,22.623-3.596L491.696,112.307z M264.765,102.792l-30.694,50.888l-65.948,10.59l30.726-50.941
	C220.174,109.916,242.332,106.374,264.765,102.792z M83.579,131.839L52.853,182.78l-27.255,4.377l-7.174-44.674
	C29.377,140.627,52.565,136.847,83.579,131.839z M24.719,483.321V255.262h472.072v228.06H24.719V483.321z"/>
<path d="M449.421,325.3H193.934c-4.201,0-7.604,3.405-7.604,7.604c0,4.2,3.404,7.604,7.604,7.604h255.487
	c4.201,0,7.604-3.405,7.604-7.604C457.026,328.704,453.622,325.3,449.421,325.3z"/>
<path d="M63.022,340.508h61.864c4.201,0,7.604-3.405,7.604-7.604c0-4.2-3.404-7.604-7.604-7.604H63.022
	c-4.201,0-7.604,3.405-7.604,7.604C55.418,337.104,58.821,340.508,63.022,340.508z"/>
<path d="M449.421,385.848H63.022c-4.201,0-7.604,3.405-7.604,7.604c0,4.2,3.404,7.604,7.604,7.604H253.15v46.573
	c0,4.2,3.404,7.604,7.604,7.604c4.201,0,7.604-3.405,7.604-7.604v-46.573h181.063c4.201,0,7.604-3.405,7.604-7.604
	C457.026,389.252,453.622,385.848,449.421,385.848z"/>
</svg>